<svg width="426" height="109" viewBox="0 0 426 109" fill="none" xmlns="http://www.w3.org/2000/svg">
<path d="M0 0H426V63.0692L215.207 109L0 63.0692V0Z" fill="url(#paint0_linear_10664_47585)"/>
<path d="M158.314 13.75H169.249C168.853 15.442 168.457 17.134 168.061 18.826C167.683 20.5 167.296 22.183 166.9 23.875C166.504 25.567 166.108 27.259 165.712 28.951C165.334 30.625 164.956 32.308 164.578 34H152.023L150.403 23.848C150.403 23.83 150.394 23.821 150.376 23.821C150.376 23.803 150.376 23.794 150.376 23.794C150.376 23.794 150.367 23.794 150.349 23.794C150.349 23.794 150.34 23.803 150.322 23.821C150.322 23.821 150.322 23.83 150.322 23.848L148.729 34H137.011C136.687 32.65 136.363 31.3 136.039 29.95C135.715 28.6 135.382 27.25 135.04 25.9C134.716 24.55 134.392 23.2 134.068 21.85C133.744 20.5 133.411 19.15 133.069 17.8C132.745 16.45 132.421 15.1 132.097 13.75H143.599C143.743 14.668 143.878 15.595 144.004 16.531C144.148 17.449 144.283 18.367 144.409 19.285C144.553 20.203 144.697 21.13 144.841 22.066C144.985 22.984 145.12 23.902 145.246 24.82C145.246 24.82 145.255 24.82 145.273 24.82C145.291 24.82 145.309 24.82 145.327 24.82C145.345 24.82 145.354 24.82 145.354 24.82C145.372 24.82 145.381 24.82 145.381 24.82L146.893 13.75H155.02L156.613 24.82C156.631 24.82 156.64 24.82 156.64 24.82C156.658 24.82 156.667 24.82 156.667 24.82C156.937 22.966 157.207 21.121 157.477 19.285C157.765 17.449 158.044 15.604 158.314 13.75ZM171.781 34C171.781 32.704 171.781 31.408 171.781 30.112C171.781 28.816 171.781 27.52 171.781 26.224C171.781 24.928 171.781 23.632 171.781 22.336C171.781 21.04 171.781 19.744 171.781 18.448C171.781 17.656 171.781 16.873 171.781 16.099C171.781 15.307 171.781 14.524 171.781 13.75H182.986C182.986 15.496 182.986 17.242 182.986 18.988C182.986 20.716 182.986 22.453 182.986 24.199C182.986 25.279 182.986 26.368 182.986 27.466C182.986 28.546 182.986 29.635 182.986 30.733C182.986 31.813 182.986 32.902 182.986 34H171.781ZM201.915 13.75H212.31C212.31 14.416 212.31 15.091 212.31 15.775C212.31 16.441 212.31 17.116 212.31 17.8C212.31 18.466 212.31 19.141 212.31 19.825C212.31 20.491 212.31 21.166 212.31 21.85C212.31 22.516 212.31 23.191 212.31 23.875C212.31 25.567 212.31 27.259 212.31 28.951C212.31 30.625 212.31 32.308 212.31 34H199.809L196.407 24.28C196.407 24.262 196.398 24.253 196.38 24.253C196.38 24.253 196.371 24.253 196.353 24.253C196.353 24.253 196.353 24.262 196.353 24.28C196.353 25.864 196.353 27.484 196.353 29.14C196.353 30.796 196.353 32.416 196.353 34H185.958C185.958 32.65 185.958 31.3 185.958 29.95C185.958 28.6 185.958 27.25 185.958 25.9C185.958 24.55 185.958 23.2 185.958 21.85C185.958 20.5 185.958 19.15 185.958 17.8C185.958 16.45 185.958 15.1 185.958 13.75H198.054L201.861 24.955C201.879 24.955 201.888 24.955 201.888 24.955C201.906 24.955 201.915 24.955 201.915 24.955C201.915 24.937 201.915 24.928 201.915 24.928V13.75ZM231.227 13.75H241.622C241.622 14.416 241.622 15.091 241.622 15.775C241.622 16.441 241.622 17.116 241.622 17.8C241.622 18.466 241.622 19.141 241.622 19.825C241.622 20.491 241.622 21.166 241.622 21.85C241.622 22.516 241.622 23.191 241.622 23.875C241.622 25.567 241.622 27.259 241.622 28.951C241.622 30.625 241.622 32.308 241.622 34H229.121L225.719 24.28C225.719 24.262 225.71 24.253 225.692 24.253C225.692 24.253 225.683 24.253 225.665 24.253C225.665 24.253 225.665 24.262 225.665 24.28C225.665 25.864 225.665 27.484 225.665 29.14C225.665 30.796 225.665 32.416 225.665 34H215.27C215.27 32.65 215.27 31.3 215.27 29.95C215.27 28.6 215.27 27.25 215.27 25.9C215.27 24.55 215.27 23.2 215.27 21.85C215.27 20.5 215.27 19.15 215.27 17.8C215.27 16.45 215.27 15.1 215.27 13.75H227.366L231.173 24.955C231.191 24.955 231.2 24.955 231.2 24.955C231.218 24.955 231.227 24.955 231.227 24.955C231.227 24.937 231.227 24.928 231.227 24.928V13.75ZM244.582 34C244.582 32.704 244.582 31.408 244.582 30.112C244.582 28.816 244.582 27.52 244.582 26.224C244.582 24.928 244.582 23.632 244.582 22.336C244.582 21.04 244.582 19.744 244.582 18.448C244.582 17.656 244.582 16.873 244.582 16.099C244.582 15.307 244.582 14.524 244.582 13.75H255.787C255.787 15.496 255.787 17.242 255.787 18.988C255.787 20.716 255.787 22.453 255.787 24.199C255.787 25.279 255.787 26.368 255.787 27.466C255.787 28.546 255.787 29.635 255.787 30.733C255.787 31.813 255.787 32.902 255.787 34H244.582ZM274.716 13.75H285.111C285.111 14.416 285.111 15.091 285.111 15.775C285.111 16.441 285.111 17.116 285.111 17.8C285.111 18.466 285.111 19.141 285.111 19.825C285.111 20.491 285.111 21.166 285.111 21.85C285.111 22.516 285.111 23.191 285.111 23.875C285.111 25.567 285.111 27.259 285.111 28.951C285.111 30.625 285.111 32.308 285.111 34H272.61L269.208 24.28C269.208 24.262 269.199 24.253 269.181 24.253C269.181 24.253 269.172 24.253 269.154 24.253C269.154 24.253 269.154 24.262 269.154 24.28C269.154 25.864 269.154 27.484 269.154 29.14C269.154 30.796 269.154 32.416 269.154 34H258.759C258.759 32.65 258.759 31.3 258.759 29.95C258.759 28.6 258.759 27.25 258.759 25.9C258.759 24.55 258.759 23.2 258.759 21.85C258.759 20.5 258.759 19.15 258.759 17.8C258.759 16.45 258.759 15.1 258.759 13.75H270.855L274.662 24.955C274.68 24.955 274.689 24.955 274.689 24.955C274.707 24.955 274.716 24.955 274.716 24.955C274.716 24.937 274.716 24.928 274.716 24.928V13.75ZM302.678 12.94C305.882 12.94 308.528 13.336 310.616 14.128C312.704 14.92 314.306 16 315.422 17.368C316.538 18.718 317.24 20.248 317.528 21.958L305.864 24.712C306.062 24.028 306.071 23.434 305.891 22.93C305.711 22.426 305.351 22.03 304.811 21.742C304.271 21.454 303.551 21.31 302.651 21.31C301.805 21.31 301.13 21.427 300.626 21.661C300.14 21.895 299.789 22.192 299.573 22.552C299.375 22.894 299.276 23.263 299.276 23.659C299.276 23.947 299.339 24.226 299.465 24.496C299.591 24.748 299.789 24.982 300.059 25.198C300.329 25.414 300.68 25.585 301.112 25.711C301.544 25.837 302.057 25.9 302.651 25.9C303.569 25.9 304.28 25.801 304.784 25.603C305.288 25.387 305.648 25.09 305.864 24.712C305.576 25.774 305.288 26.845 305 27.925C304.712 29.005 304.415 30.094 304.109 31.192C303.821 32.272 303.533 33.343 303.245 34.405C302.759 34.495 302.282 34.558 301.814 34.594C301.364 34.648 300.824 34.675 300.194 34.675C298.826 34.675 297.566 34.549 296.414 34.297C295.28 34.045 294.254 33.694 293.336 33.244C292.418 32.776 291.608 32.218 290.906 31.57C290.222 30.922 289.646 30.202 289.178 29.41C288.728 28.6 288.386 27.736 288.152 26.818C287.918 25.882 287.801 24.91 287.801 23.902C287.801 23.074 287.882 22.273 288.044 21.499C288.224 20.707 288.494 19.951 288.854 19.231C289.232 18.493 289.709 17.809 290.285 17.179C290.861 16.531 291.536 15.955 292.31 15.451C293.102 14.929 294.011 14.479 295.037 14.101C296.063 13.723 297.206 13.435 298.466 13.237C299.744 13.039 301.148 12.94 302.678 12.94ZM305.864 34C305.864 32.956 305.864 31.921 305.864 30.895C305.864 29.869 305.864 28.843 305.864 27.817C305.864 26.773 305.864 25.738 305.864 24.712C307.142 24.712 308.411 24.712 309.671 24.712C310.949 24.712 312.227 24.712 313.505 24.712C314.783 24.712 316.052 24.712 317.312 24.712V34H305.864ZM77.2051 62C77.2051 60.704 77.2051 59.408 77.2051 58.112C77.2051 56.816 77.2051 55.52 77.2051 54.224C77.2051 52.928 77.2051 51.632 77.2051 50.336C77.2051 49.04 77.2051 47.744 77.2051 46.448C77.2051 45.656 77.2051 44.873 77.2051 44.099C77.2051 43.307 77.2051 42.524 77.2051 41.75H88.4101C88.4101 43.496 88.4101 45.242 88.4101 46.988C88.4101 48.716 88.4101 50.453 88.4101 52.199C88.4101 53.279 88.4101 54.368 88.4101 55.466C88.4101 56.546 88.4101 57.635 88.4101 58.733C88.4101 59.813 88.4101 60.902 88.4101 62H77.2051ZM107.339 41.75H117.734C117.734 42.416 117.734 43.091 117.734 43.775C117.734 44.441 117.734 45.116 117.734 45.8C117.734 46.466 117.734 47.141 117.734 47.825C117.734 48.491 117.734 49.166 117.734 49.85C117.734 50.516 117.734 51.191 117.734 51.875C117.734 53.567 117.734 55.259 117.734 56.951C117.734 58.625 117.734 60.308 117.734 62H105.233L101.831 52.28C101.831 52.262 101.822 52.253 101.804 52.253C101.804 52.253 101.795 52.253 101.777 52.253C101.777 52.253 101.777 52.262 101.777 52.28C101.777 53.864 101.777 55.484 101.777 57.14C101.777 58.796 101.777 60.416 101.777 62H91.3822C91.3822 60.65 91.3822 59.3 91.3822 57.95C91.3822 56.6 91.3822 55.25 91.3822 53.9C91.3822 52.55 91.3822 51.2 91.3822 49.85C91.3822 48.5 91.3822 47.15 91.3822 45.8C91.3822 44.45 91.3822 43.1 91.3822 41.75H103.478L107.285 52.955C107.303 52.955 107.312 52.955 107.312 52.955C107.33 52.955 107.339 52.955 107.339 52.955C107.339 52.937 107.339 52.928 107.339 52.928V41.75ZM143.401 49.688H131.926C131.926 49.688 131.926 49.697 131.926 49.715V51.281C131.926 51.299 131.926 51.308 131.926 51.308H142.996V57.734H131.926C131.926 57.734 131.926 57.743 131.926 57.761C131.926 58.373 131.926 58.886 131.926 59.3C131.926 59.696 131.926 60.092 131.926 60.488C131.926 60.884 131.926 61.388 131.926 62H120.694C120.694 60.722 120.694 59.444 120.694 58.166C120.694 56.888 120.694 55.619 120.694 54.359C120.694 53.081 120.694 51.803 120.694 50.525C120.694 49.247 120.694 47.969 120.694 46.691C120.694 45.863 120.694 45.044 120.694 44.234C120.694 43.406 120.694 42.578 120.694 41.75H143.401V49.688ZM160.842 40.94C164.154 40.94 166.908 41.408 169.104 42.344C171.3 43.28 172.947 44.567 174.045 46.205C175.143 47.843 175.692 49.724 175.692 51.848C175.692 53 175.521 54.116 175.179 55.196C174.837 56.258 174.297 57.257 173.559 58.193C172.821 59.111 171.867 59.921 170.697 60.623C169.527 61.307 168.123 61.838 166.485 62.216C164.865 62.612 162.984 62.81 160.842 62.81C159.312 62.81 157.908 62.702 156.63 62.486C155.37 62.288 154.227 62.009 153.201 61.649C152.175 61.271 151.266 60.821 150.474 60.299C149.7 59.777 149.025 59.201 148.449 58.571C147.891 57.923 147.423 57.239 147.045 56.519C146.685 55.799 146.415 55.043 146.235 54.251C146.073 53.459 145.992 52.658 145.992 51.848C145.992 50.786 146.127 49.778 146.397 48.824C146.685 47.87 147.099 46.988 147.639 46.178C148.197 45.368 148.881 44.648 149.691 44.018C150.519 43.37 151.482 42.821 152.58 42.371C153.678 41.903 154.911 41.552 156.279 41.318C157.665 41.066 159.186 40.94 160.842 40.94ZM160.869 49.526C160.239 49.526 159.699 49.598 159.249 49.742C158.817 49.868 158.466 50.048 158.196 50.282C157.944 50.498 157.755 50.75 157.629 51.038C157.521 51.308 157.467 51.587 157.467 51.875C157.467 52.253 157.575 52.622 157.791 52.982C158.007 53.342 158.367 53.639 158.871 53.873C159.375 54.107 160.041 54.224 160.869 54.224C161.355 54.224 161.778 54.179 162.138 54.089C162.516 53.999 162.831 53.882 163.083 53.738C163.353 53.576 163.569 53.396 163.731 53.198C163.911 52.982 164.037 52.766 164.109 52.55C164.181 52.316 164.217 52.082 164.217 51.848C164.217 51.578 164.154 51.308 164.028 51.038C163.92 50.768 163.74 50.525 163.488 50.309C163.236 50.075 162.894 49.886 162.462 49.742C162.03 49.598 161.499 49.526 160.869 49.526ZM178.395 41.75H197.916C199.5 41.75 200.814 42.038 201.858 42.614C202.902 43.172 203.685 43.901 204.207 44.801C204.729 45.683 204.99 46.619 204.99 47.609C204.99 48.635 204.702 49.634 204.126 50.606C203.568 51.56 202.713 52.343 201.561 52.955C200.427 53.567 199.005 53.873 197.295 53.873C197.223 53.873 197.043 53.873 196.755 53.873C196.467 53.873 196.17 53.873 195.864 53.873C195.576 53.873 195.387 53.873 195.297 53.873C195.297 53.873 195.297 53.882 195.297 53.9C195.297 53.918 195.297 53.927 195.297 53.927C195.297 53.927 195.297 53.936 195.297 53.954C195.297 53.954 195.297 53.963 195.297 53.981H201.426L205.584 62H192.759C192.417 61.082 192.066 60.164 191.706 59.246C191.364 58.328 191.013 57.41 190.653 56.492C190.311 55.574 189.96 54.656 189.6 53.738H192.732C193.092 53.738 193.407 53.684 193.677 53.576C193.965 53.468 194.199 53.324 194.379 53.144C194.559 52.964 194.694 52.766 194.784 52.55C194.874 52.316 194.919 52.082 194.919 51.848C194.919 51.524 194.838 51.218 194.676 50.93C194.514 50.642 194.271 50.408 193.947 50.228C193.623 50.048 193.218 49.958 192.732 49.958H189.654C189.654 49.958 189.645 49.967 189.627 49.985C189.627 49.985 189.618 49.985 189.6 49.985C189.6 49.985 189.6 49.994 189.6 50.012C189.6 51.182 189.6 52.046 189.6 52.604C189.6 53.144 189.6 53.486 189.6 53.63C189.6 53.756 189.6 53.801 189.6 53.765C189.6 53.765 189.6 53.864 189.6 54.062C189.6 54.242 189.6 54.494 189.6 54.818C189.6 55.142 189.6 55.511 189.6 55.925C189.6 56.519 189.6 57.176 189.6 57.896C189.6 58.616 189.6 59.336 189.6 60.056C189.6 60.758 189.6 61.406 189.6 62H178.395C178.395 60.848 178.395 59.696 178.395 58.544C178.395 57.374 178.395 56.213 178.395 55.061C178.395 53.909 178.395 52.757 178.395 51.605C178.395 50.435 178.395 49.274 178.395 48.122C178.395 47.06 178.395 45.998 178.395 44.936C178.395 43.874 178.395 42.812 178.395 41.75ZM240.637 41.75C240.637 43.1 240.637 44.45 240.637 45.8C240.637 47.15 240.637 48.5 240.637 49.85C240.637 51.2 240.637 52.55 240.637 53.9C240.637 55.25 240.637 56.6 240.637 57.95C240.637 59.3 240.637 60.65 240.637 62H230.242C230.242 60.128 230.242 58.256 230.242 56.384C230.242 54.512 230.242 52.64 230.242 50.768C230.242 50.75 230.233 50.741 230.215 50.741C230.215 50.741 230.206 50.741 230.188 50.741C230.188 50.741 230.188 50.75 230.188 50.768L227.542 62H220.657C220.207 60.128 219.766 58.265 219.334 56.411C218.902 54.557 218.461 52.703 218.011 50.849C218.011 50.831 218.002 50.822 217.984 50.822C217.984 50.822 217.975 50.822 217.957 50.822C217.957 50.822 217.957 50.831 217.957 50.849C217.957 52.703 217.957 54.557 217.957 56.411C217.957 58.265 217.957 60.128 217.957 62H208.102C208.102 60.65 208.102 59.3 208.102 57.95C208.102 56.582 208.102 55.223 208.102 53.873C208.102 52.505 208.102 51.146 208.102 49.796C208.102 48.428 208.102 47.069 208.102 45.719C208.102 45.053 208.102 44.396 208.102 43.748C208.102 43.082 208.102 42.416 208.102 41.75H222.493C222.763 42.866 223.024 43.982 223.276 45.098C223.528 46.196 223.78 47.303 224.032 48.419C224.302 49.535 224.563 50.651 224.815 51.767C224.815 51.785 224.815 51.803 224.815 51.821C224.833 51.821 224.842 51.821 224.842 51.821C224.86 51.803 224.869 51.785 224.869 51.767L227.029 41.75H240.637ZM265.561 41.75C265.885 42.866 266.2 43.991 266.506 45.125C266.83 46.241 267.145 47.366 267.451 48.5C267.775 49.616 268.099 50.741 268.423 51.875C268.747 52.991 269.062 54.116 269.368 55.25C269.692 56.366 270.007 57.491 270.313 58.625C270.637 59.741 270.961 60.866 271.285 62H259.243L258.784 59.354C258.712 59.354 258.649 59.354 258.595 59.354C258.541 59.354 258.478 59.354 258.406 59.354H255.436C255.382 59.354 255.328 59.354 255.274 59.354C255.22 59.354 255.166 59.354 255.112 59.354L254.653 62H243.124C243.448 60.866 243.763 59.741 244.069 58.625C244.393 57.491 244.708 56.366 245.014 55.25C245.338 54.116 245.653 52.991 245.959 51.875C246.283 50.741 246.598 49.616 246.904 48.5C247.228 47.366 247.543 46.241 247.849 45.125C248.173 43.991 248.488 42.866 248.794 41.75H265.561ZM255.436 57.437C255.436 57.455 255.436 57.464 255.436 57.464C255.436 57.464 255.445 57.464 255.463 57.464H258.433C258.451 57.464 258.46 57.464 258.46 57.464C258.46 57.446 258.46 57.437 258.46 57.437C258.46 57.437 258.424 57.221 258.352 56.789C258.28 56.339 258.181 55.781 258.055 55.115C257.947 54.431 257.83 53.711 257.704 52.955C257.578 52.181 257.461 51.452 257.353 50.768C257.245 50.084 257.146 49.526 257.056 49.094C256.984 48.662 256.948 48.446 256.948 48.446C256.948 48.446 256.939 48.446 256.921 48.446C256.921 48.446 256.885 48.662 256.813 49.094C256.741 49.526 256.642 50.084 256.516 50.768C256.408 51.452 256.291 52.181 256.165 52.955C256.039 53.711 255.922 54.431 255.814 55.115C255.706 55.781 255.616 56.339 255.544 56.789C255.472 57.221 255.436 57.437 255.436 57.437ZM295.478 41.75V49.958H288.971C288.971 49.958 288.962 49.967 288.944 49.985C288.944 49.985 288.935 49.985 288.917 49.985C288.917 49.985 288.917 49.994 288.917 50.012C288.917 50.804 288.917 51.605 288.917 52.415C288.917 53.207 288.917 54.008 288.917 54.818C288.917 55.61 288.917 56.411 288.917 57.221C288.917 58.013 288.917 58.814 288.917 59.624C288.917 60.416 288.917 61.208 288.917 62H277.712C277.712 60.668 277.712 59.336 277.712 58.004C277.712 56.672 277.712 55.34 277.712 54.008C277.712 52.676 277.712 51.344 277.712 50.012C277.712 49.994 277.703 49.985 277.685 49.985C277.685 49.967 277.676 49.958 277.658 49.958H271.151V41.75H295.478ZM298.253 62C298.253 60.704 298.253 59.408 298.253 58.112C298.253 56.816 298.253 55.52 298.253 54.224C298.253 52.928 298.253 51.632 298.253 50.336C298.253 49.04 298.253 47.744 298.253 46.448C298.253 45.656 298.253 44.873 298.253 44.099C298.253 43.307 298.253 42.524 298.253 41.75H309.458C309.458 43.496 309.458 45.242 309.458 46.988C309.458 48.716 309.458 50.453 309.458 52.199C309.458 53.279 309.458 54.368 309.458 55.466C309.458 56.546 309.458 57.635 309.458 58.733C309.458 59.813 309.458 60.902 309.458 62H298.253ZM327.01 40.94C330.322 40.94 333.076 41.408 335.272 42.344C337.468 43.28 339.115 44.567 340.213 46.205C341.311 47.843 341.86 49.724 341.86 51.848C341.86 53 341.689 54.116 341.347 55.196C341.005 56.258 340.465 57.257 339.727 58.193C338.989 59.111 338.035 59.921 336.865 60.623C335.695 61.307 334.291 61.838 332.653 62.216C331.033 62.612 329.152 62.81 327.01 62.81C325.48 62.81 324.076 62.702 322.798 62.486C321.538 62.288 320.395 62.009 319.369 61.649C318.343 61.271 317.434 60.821 316.642 60.299C315.868 59.777 315.193 59.201 314.617 58.571C314.059 57.923 313.591 57.239 313.213 56.519C312.853 55.799 312.583 55.043 312.403 54.251C312.241 53.459 312.16 52.658 312.16 51.848C312.16 50.786 312.295 49.778 312.565 48.824C312.853 47.87 313.267 46.988 313.807 46.178C314.365 45.368 315.049 44.648 315.859 44.018C316.687 43.37 317.65 42.821 318.748 42.371C319.846 41.903 321.079 41.552 322.447 41.318C323.833 41.066 325.354 40.94 327.01 40.94ZM327.037 49.526C326.407 49.526 325.867 49.598 325.417 49.742C324.985 49.868 324.634 50.048 324.364 50.282C324.112 50.498 323.923 50.75 323.797 51.038C323.689 51.308 323.635 51.587 323.635 51.875C323.635 52.253 323.743 52.622 323.959 52.982C324.175 53.342 324.535 53.639 325.039 53.873C325.543 54.107 326.209 54.224 327.037 54.224C327.523 54.224 327.946 54.179 328.306 54.089C328.684 53.999 328.999 53.882 329.251 53.738C329.521 53.576 329.737 53.396 329.899 53.198C330.079 52.982 330.205 52.766 330.277 52.55C330.349 52.316 330.385 52.082 330.385 51.848C330.385 51.578 330.322 51.308 330.196 51.038C330.088 50.768 329.908 50.525 329.656 50.309C329.404 50.075 329.062 49.886 328.63 49.742C328.198 49.598 327.667 49.526 327.037 49.526ZM360.52 41.75H370.915C370.915 42.416 370.915 43.091 370.915 43.775C370.915 44.441 370.915 45.116 370.915 45.8C370.915 46.466 370.915 47.141 370.915 47.825C370.915 48.491 370.915 49.166 370.915 49.85C370.915 50.516 370.915 51.191 370.915 51.875C370.915 53.567 370.915 55.259 370.915 56.951C370.915 58.625 370.915 60.308 370.915 62H358.414L355.012 52.28C355.012 52.262 355.003 52.253 354.985 52.253C354.985 52.253 354.976 52.253 354.958 52.253C354.958 52.253 354.958 52.262 354.958 52.28C354.958 53.864 354.958 55.484 354.958 57.14C354.958 58.796 354.958 60.416 354.958 62H344.563C344.563 60.65 344.563 59.3 344.563 57.95C344.563 56.6 344.563 55.25 344.563 53.9C344.563 52.55 344.563 51.2 344.563 49.85C344.563 48.5 344.563 47.15 344.563 45.8C344.563 44.45 344.563 43.1 344.563 41.75H356.659L360.466 52.955C360.484 52.955 360.493 52.955 360.493 52.955C360.511 52.955 360.52 52.955 360.52 52.955C360.52 52.937 360.52 52.928 360.52 52.928V41.75Z" fill="white"/>
<defs>
<linearGradient id="paint0_linear_10664_47585" x1="213" y1="-16.4365" x2="213" y2="158.31" gradientUnits="userSpaceOnUse">
<stop stop-color="#FF0051"/>
<stop offset="1" stop-opacity="0"/>
</linearGradient>
</defs>
</svg>
