<svg width="426" height="109" viewBox="0 0 426 109" fill="none" xmlns="http://www.w3.org/2000/svg">
<path d="M0.19043 0H425.809V63.0692L215.205 109L0.19043 63.0692V0Z" fill="url(#paint0_linear_10664_47630)"/>
<path d="M103.687 17C105.423 17 106.935 17.2427 108.223 17.728C109.53 18.1947 110.603 18.8387 111.443 19.66C112.302 20.4627 112.946 21.3773 113.375 22.404C113.804 23.4307 114.019 24.4947 114.019 25.596C114.019 26.772 113.795 27.892 113.347 28.956C112.918 30.0013 112.264 30.9347 111.387 31.756C110.528 32.5773 109.455 33.2307 108.167 33.716C106.879 34.1827 105.386 34.416 103.687 34.416H97.6671C97.6671 34.416 97.6578 34.4253 97.6391 34.444C97.6391 34.444 97.6298 34.444 97.6111 34.444C97.6111 34.444 97.6111 34.4533 97.6111 34.472V38H85.9631C85.9631 36.7493 85.9631 35.4987 85.9631 34.248C85.9631 32.9973 85.9631 31.7467 85.9631 30.496C85.9631 29.2453 85.9631 27.9947 85.9631 26.744C85.9631 25.4933 85.9631 24.2427 85.9631 22.992C85.9631 21.984 85.9631 20.9853 85.9631 19.996C85.9631 18.988 85.9631 17.9893 85.9631 17H103.687ZM100.243 28.34C100.803 28.34 101.27 28.2467 101.643 28.06C102.035 27.8547 102.324 27.6027 102.511 27.304C102.698 26.9867 102.791 26.6693 102.791 26.352C102.791 26.016 102.698 25.708 102.511 25.428C102.324 25.1293 102.044 24.8867 101.671 24.7C101.298 24.5133 100.822 24.42 100.243 24.42H97.6671C97.6485 24.42 97.6298 24.4293 97.6111 24.448C97.6111 24.448 97.6111 24.4573 97.6111 24.476V28.312C97.6298 28.312 97.6391 28.3213 97.6391 28.34C97.6578 28.34 97.6671 28.34 97.6671 28.34H100.243ZM128.391 29.712C128.391 29.7307 128.391 29.7493 128.391 29.768C128.409 29.768 128.428 29.768 128.447 29.768H139.367V38H116.771C116.771 36.8427 116.771 35.6853 116.771 34.528C116.771 33.3707 116.771 32.2133 116.771 31.056C116.771 29.88 116.771 28.7133 116.771 27.556C116.771 26.3987 116.771 25.2413 116.771 24.084C116.771 22.908 116.771 21.732 116.771 20.556C116.771 19.3613 116.771 18.176 116.771 17H128.391C128.391 18.064 128.391 19.128 128.391 20.192C128.391 21.2373 128.391 22.292 128.391 23.356C128.391 24.42 128.391 25.484 128.391 26.548C128.391 27.5933 128.391 28.648 128.391 29.712ZM165.092 17C165.428 18.1573 165.755 19.324 166.072 20.5C166.408 21.6573 166.735 22.824 167.052 24C167.388 25.1573 167.724 26.324 168.06 27.5C168.396 28.6573 168.723 29.824 169.04 31C169.376 32.1573 169.703 33.324 170.02 34.5C170.356 35.6573 170.692 36.824 171.028 38H158.54L158.064 35.256C157.99 35.256 157.924 35.256 157.868 35.256C157.812 35.256 157.747 35.256 157.672 35.256H154.592C154.536 35.256 154.48 35.256 154.424 35.256C154.368 35.256 154.312 35.256 154.256 35.256L153.78 38H141.824C142.16 36.824 142.487 35.6573 142.804 34.5C143.14 33.324 143.467 32.1573 143.784 31C144.12 29.824 144.447 28.6573 144.764 27.5C145.1 26.324 145.427 25.1573 145.744 24C146.08 22.824 146.407 21.6573 146.724 20.5C147.06 19.324 147.387 18.1573 147.704 17H165.092ZM154.592 33.268C154.592 33.2867 154.592 33.296 154.592 33.296C154.592 33.296 154.602 33.296 154.62 33.296H157.7C157.719 33.296 157.728 33.296 157.728 33.296C157.728 33.2773 157.728 33.268 157.728 33.268C157.728 33.268 157.691 33.044 157.616 32.596C157.542 32.1293 157.439 31.5507 157.308 30.86C157.196 30.1507 157.075 29.404 156.944 28.62C156.814 27.8173 156.692 27.0613 156.58 26.352C156.468 25.6427 156.366 25.064 156.272 24.616C156.198 24.168 156.16 23.944 156.16 23.944C156.16 23.944 156.151 23.944 156.132 23.944C156.132 23.944 156.095 24.168 156.02 24.616C155.946 25.064 155.843 25.6427 155.712 26.352C155.6 27.0613 155.479 27.8173 155.348 28.62C155.218 29.404 155.096 30.1507 154.984 30.86C154.872 31.5507 154.779 32.1293 154.704 32.596C154.63 33.044 154.592 33.268 154.592 33.268ZM186.529 17H199.241C198.215 18.8667 197.188 20.7333 196.161 22.6C195.135 24.4667 194.099 26.3333 193.053 28.2C192.027 30.0667 191 31.9333 189.973 33.8V38H178.353V33.772C177.7 32.652 177.047 31.532 176.393 30.412C175.759 29.292 175.115 28.172 174.461 27.052C173.827 25.932 173.183 24.8213 172.529 23.72C171.876 22.6 171.223 21.48 170.569 20.36C169.935 19.24 169.291 18.12 168.637 17H182.077C182.32 17.896 182.553 18.792 182.777 19.688C183.02 20.584 183.263 21.48 183.505 22.376C183.748 23.272 183.981 24.168 184.205 25.064C184.205 25.064 184.205 25.0733 184.205 25.092C184.224 25.092 184.233 25.092 184.233 25.092C184.252 25.0733 184.261 25.064 184.261 25.064C184.448 24.392 184.635 23.72 184.821 23.048C185.008 22.376 185.195 21.704 185.381 21.032C185.587 20.36 185.783 19.688 185.969 19.016C186.156 18.344 186.343 17.672 186.529 17ZM225.25 24.056H213.07C213.051 24.056 213.042 24.056 213.042 24.056V25.596C213.042 25.6147 213.042 25.6333 213.042 25.652C213.06 25.652 213.07 25.652 213.07 25.652H224.83V29.6H213.07C213.07 29.6 213.06 29.6 213.042 29.6C213.042 29.6 213.042 29.6093 213.042 29.628C213.042 29.628 213.042 29.6373 213.042 29.656V31.224C213.06 31.224 213.07 31.224 213.07 31.224H225.418V38H201.702C201.702 36.8987 201.702 35.7973 201.702 34.696C201.702 33.576 201.702 32.4653 201.702 31.364C201.702 30.2627 201.702 29.1613 201.702 28.06C201.702 26.94 201.702 25.8293 201.702 24.728C201.702 23.608 201.702 22.4973 201.702 21.396C201.702 20.668 201.702 19.94 201.702 19.212C201.702 18.4653 201.702 17.728 201.702 17H225.25V24.056ZM243.051 25.344C245.851 25.344 248.194 25.4653 250.079 25.708C251.964 25.9507 253.467 26.3333 254.587 26.856C255.707 27.36 256.51 28.0133 256.995 28.816C257.48 29.6 257.723 30.5333 257.723 31.616C257.723 32.792 257.34 33.8373 256.575 34.752C255.828 35.648 254.774 36.404 253.411 37.02C252.067 37.6173 250.499 38.0653 248.707 38.364C246.934 38.6813 245.02 38.84 242.967 38.84C240.69 38.84 238.618 38.672 236.751 38.336C234.884 38 233.298 37.4867 231.991 36.796C230.684 36.0867 229.704 35.1813 229.051 34.08C228.416 32.9787 228.164 31.6627 228.295 30.132L240.251 29.32C240.102 29.88 240.139 30.3467 240.363 30.72C240.606 31.0933 240.979 31.3733 241.483 31.56C241.987 31.7467 242.547 31.84 243.163 31.84C243.536 31.84 243.872 31.812 244.171 31.756C244.488 31.7 244.768 31.616 245.011 31.504C245.254 31.392 245.44 31.252 245.571 31.084C245.702 30.8973 245.767 30.692 245.767 30.468C245.767 30.02 245.534 29.7307 245.067 29.6C244.619 29.4693 243.956 29.404 243.079 29.404C243.042 29.404 242.995 29.404 242.939 29.404C242.902 29.404 242.855 29.404 242.799 29.404C242.762 29.404 242.715 29.404 242.659 29.404C242.603 29.404 242.547 29.404 242.491 29.404C242.454 29.404 242.416 29.404 242.379 29.404C239.616 29.404 237.32 29.264 235.491 28.984C233.662 28.6853 232.215 28.2747 231.151 27.752C230.087 27.2293 229.331 26.6133 228.883 25.904C228.435 25.176 228.211 24.364 228.211 23.468C228.211 22.516 228.463 21.6573 228.967 20.892C229.471 20.108 230.18 19.4267 231.095 18.848C232.028 18.2507 233.111 17.756 234.343 17.364C235.594 16.972 236.956 16.6733 238.431 16.468C239.924 16.2627 241.483 16.16 243.107 16.16C245.403 16.16 247.456 16.3653 249.267 16.776C251.096 17.1867 252.627 17.7747 253.859 18.54C255.11 19.3053 256.006 20.22 256.547 21.284C257.088 22.348 257.219 23.5427 256.939 24.868L245.375 25.4C245.58 24.8587 245.571 24.42 245.347 24.084C245.123 23.7293 244.768 23.4773 244.283 23.328C243.816 23.16 243.284 23.076 242.687 23.076C242.314 23.076 241.978 23.1133 241.679 23.188C241.38 23.244 241.119 23.3373 240.895 23.468C240.69 23.58 240.522 23.72 240.391 23.888C240.279 24.056 240.223 24.2333 240.223 24.42C240.223 24.644 240.298 24.8307 240.447 24.98C240.596 25.1107 240.82 25.204 241.119 25.26C241.436 25.316 241.847 25.344 242.351 25.344C242.388 25.344 242.426 25.344 242.463 25.344C242.519 25.344 242.566 25.344 242.603 25.344C242.659 25.344 242.706 25.344 242.743 25.344C242.799 25.344 242.846 25.344 242.883 25.344C242.939 25.344 242.995 25.344 243.051 25.344ZM290.833 16.16C294.268 16.16 297.124 16.6453 299.401 17.616C301.679 18.5867 303.387 19.9213 304.525 21.62C305.664 23.3187 306.233 25.2693 306.233 27.472C306.233 28.6667 306.056 29.824 305.701 30.944C305.347 32.0453 304.787 33.0813 304.021 34.052C303.256 35.004 302.267 35.844 301.053 36.572C299.84 37.2813 298.384 37.832 296.685 38.224C295.005 38.6347 293.055 38.84 290.833 38.84C289.247 38.84 287.791 38.728 286.465 38.504C285.159 38.2987 283.973 38.0093 282.909 37.636C281.845 37.244 280.903 36.7773 280.081 36.236C279.279 35.6947 278.579 35.0973 277.981 34.444C277.403 33.772 276.917 33.0627 276.525 32.316C276.152 31.5693 275.872 30.7853 275.685 29.964C275.517 29.1427 275.433 28.312 275.433 27.472C275.433 26.3707 275.573 25.3253 275.853 24.336C276.152 23.3467 276.581 22.432 277.141 21.592C277.72 20.752 278.429 20.0053 279.269 19.352C280.128 18.68 281.127 18.1107 282.265 17.644C283.404 17.1587 284.683 16.7947 286.101 16.552C287.539 16.2907 289.116 16.16 290.833 16.16ZM290.861 25.064C290.208 25.064 289.648 25.1387 289.181 25.288C288.733 25.4187 288.369 25.6053 288.089 25.848C287.828 26.072 287.632 26.3333 287.501 26.632C287.389 26.912 287.333 27.2013 287.333 27.5C287.333 27.892 287.445 28.2747 287.669 28.648C287.893 29.0213 288.267 29.3293 288.789 29.572C289.312 29.8147 290.003 29.936 290.861 29.936C291.365 29.936 291.804 29.8893 292.177 29.796C292.569 29.7027 292.896 29.5813 293.157 29.432C293.437 29.264 293.661 29.0773 293.829 28.872C294.016 28.648 294.147 28.424 294.221 28.2C294.296 27.9573 294.333 27.7147 294.333 27.472C294.333 27.192 294.268 26.912 294.137 26.632C294.025 26.352 293.839 26.1 293.577 25.876C293.316 25.6333 292.961 25.4373 292.513 25.288C292.065 25.1387 291.515 25.064 290.861 25.064ZM332.585 25.232H320.685C320.685 25.232 320.685 25.2413 320.685 25.26V26.884C320.685 26.9027 320.685 26.912 320.685 26.912H332.165V33.576H320.685C320.685 33.576 320.685 33.5853 320.685 33.604C320.685 34.2387 320.685 34.7707 320.685 35.2C320.685 35.6107 320.685 36.0213 320.685 36.432C320.685 36.8427 320.685 37.3653 320.685 38H309.037C309.037 36.6747 309.037 35.3493 309.037 34.024C309.037 32.6987 309.037 31.3827 309.037 30.076C309.037 28.7507 309.037 27.4253 309.037 26.1C309.037 24.7747 309.037 23.4493 309.037 22.124C309.037 21.2653 309.037 20.416 309.037 19.576C309.037 18.7173 309.037 17.8587 309.037 17H332.585V25.232ZM114.008 46V54.512H107.26C107.26 54.512 107.251 54.5213 107.232 54.54C107.232 54.54 107.223 54.54 107.204 54.54C107.204 54.54 107.204 54.5493 107.204 54.568C107.204 55.3893 107.204 56.22 107.204 57.06C107.204 57.8813 107.204 58.712 107.204 59.552C107.204 60.3733 107.204 61.204 107.204 62.044C107.204 62.8653 107.204 63.696 107.204 64.536C107.204 65.3573 107.204 66.1787 107.204 67H95.5839C95.5839 65.6187 95.5839 64.2373 95.5839 62.856C95.5839 61.4747 95.5839 60.0933 95.5839 58.712C95.5839 57.3307 95.5839 55.9493 95.5839 54.568C95.5839 54.5493 95.5745 54.54 95.5559 54.54C95.5559 54.5213 95.5465 54.512 95.5279 54.512H88.7799V46H114.008ZM132.425 46H144.045C144.045 47.176 144.045 48.352 144.045 49.528C144.045 50.704 144.045 51.88 144.045 53.056C144.045 54.232 144.045 55.4173 144.045 56.612C144.045 58.3293 144.045 60.056 144.045 61.792C144.045 63.528 144.045 65.264 144.045 67H132.425C132.425 65.8613 132.425 64.7227 132.425 63.584C132.425 62.4453 132.425 61.3067 132.425 60.168C132.425 60.1493 132.416 60.14 132.397 60.14C132.397 60.1213 132.388 60.112 132.369 60.112H128.533C128.514 60.112 128.505 60.1213 128.505 60.14C128.505 60.14 128.505 60.1493 128.505 60.168C128.505 61.3067 128.505 62.4453 128.505 63.584C128.505 64.7227 128.505 65.8613 128.505 67H116.885C116.885 65.88 116.885 64.76 116.885 63.64C116.885 62.52 116.885 61.4 116.885 60.28C116.885 59.16 116.885 58.04 116.885 56.92C116.885 55.8 116.885 54.68 116.885 53.56C116.885 52.44 116.885 51.32 116.885 50.2C116.885 49.4907 116.885 48.7907 116.885 48.1C116.885 47.3907 116.885 46.6907 116.885 46H128.505C128.505 46.896 128.505 47.8013 128.505 48.716C128.505 49.6307 128.505 50.5453 128.505 51.46C128.505 52.356 128.505 53.2613 128.505 54.176C128.505 54.1947 128.505 54.2133 128.505 54.232C128.505 54.232 128.514 54.232 128.533 54.232H132.369C132.388 54.232 132.397 54.232 132.397 54.232C132.416 54.2133 132.425 54.1947 132.425 54.176C132.425 52.8133 132.425 51.4507 132.425 50.088C132.425 48.7253 132.425 47.3627 132.425 46ZM170.667 53.056H158.487C158.468 53.056 158.459 53.056 158.459 53.056V54.596C158.459 54.6147 158.459 54.6333 158.459 54.652C158.477 54.652 158.487 54.652 158.487 54.652H170.247V58.6H158.487C158.487 58.6 158.477 58.6 158.459 58.6C158.459 58.6 158.459 58.6093 158.459 58.628C158.459 58.628 158.459 58.6373 158.459 58.656V60.224C158.477 60.224 158.487 60.224 158.487 60.224H170.835V67H147.119C147.119 65.8987 147.119 64.7973 147.119 63.696C147.119 62.576 147.119 61.4653 147.119 60.364C147.119 59.2627 147.119 58.1613 147.119 57.06C147.119 55.94 147.119 54.8293 147.119 53.728C147.119 52.608 147.119 51.4973 147.119 50.396C147.119 49.668 147.119 48.94 147.119 48.212C147.119 47.4653 147.119 46.728 147.119 46H170.667V53.056ZM215.157 46C215.157 47.4 215.157 48.8 215.157 50.2C215.157 51.6 215.157 53 215.157 54.4C215.157 55.8 215.157 57.2 215.157 58.6C215.157 60 215.157 61.4 215.157 62.8C215.157 64.2 215.157 65.6 215.157 67H204.377C204.377 65.0587 204.377 63.1173 204.377 61.176C204.377 59.2347 204.377 57.2933 204.377 55.352C204.377 55.3333 204.368 55.324 204.349 55.324C204.349 55.324 204.34 55.324 204.321 55.324C204.321 55.324 204.321 55.3333 204.321 55.352L201.577 67H194.437C193.971 65.0587 193.513 63.1267 193.065 61.204C192.617 59.2813 192.16 57.3587 191.693 55.436C191.693 55.4173 191.684 55.408 191.665 55.408C191.665 55.408 191.656 55.408 191.637 55.408C191.637 55.408 191.637 55.4173 191.637 55.436C191.637 57.3587 191.637 59.2813 191.637 61.204C191.637 63.1267 191.637 65.0587 191.637 67H181.417C181.417 65.6 181.417 64.2 181.417 62.8C181.417 61.3813 181.417 59.972 181.417 58.572C181.417 57.1533 181.417 55.744 181.417 54.344C181.417 52.9253 181.417 51.516 181.417 50.116C181.417 49.4253 181.417 48.744 181.417 48.072C181.417 47.3813 181.417 46.6907 181.417 46H196.341C196.621 47.1573 196.892 48.3147 197.153 49.472C197.415 50.6107 197.676 51.7587 197.937 52.916C198.217 54.0733 198.488 55.2307 198.749 56.388C198.749 56.4067 198.749 56.4253 198.749 56.444C198.768 56.444 198.777 56.444 198.777 56.444C198.796 56.4253 198.805 56.4067 198.805 56.388L201.045 46H215.157ZM233.361 45.16C236.795 45.16 239.651 45.6453 241.929 46.616C244.206 47.5867 245.914 48.9213 247.053 50.62C248.191 52.3187 248.761 54.2693 248.761 56.472C248.761 57.6667 248.583 58.824 248.229 59.944C247.874 61.0453 247.314 62.0813 246.549 63.052C245.783 64.004 244.794 64.844 243.581 65.572C242.367 66.2813 240.911 66.832 239.213 67.224C237.533 67.6347 235.582 67.84 233.361 67.84C231.774 67.84 230.318 67.728 228.993 67.504C227.686 67.2987 226.501 67.0093 225.437 66.636C224.373 66.244 223.43 65.7773 222.609 65.236C221.806 64.6947 221.106 64.0973 220.509 63.444C219.93 62.772 219.445 62.0627 219.053 61.316C218.679 60.5693 218.399 59.7853 218.213 58.964C218.045 58.1427 217.961 57.312 217.961 56.472C217.961 55.3707 218.101 54.3253 218.381 53.336C218.679 52.3467 219.109 51.432 219.669 50.592C220.247 49.752 220.957 49.0053 221.797 48.352C222.655 47.68 223.654 47.1107 224.793 46.644C225.931 46.1587 227.21 45.7947 228.629 45.552C230.066 45.2907 231.643 45.16 233.361 45.16ZM233.389 54.064C232.735 54.064 232.175 54.1387 231.709 54.288C231.261 54.4187 230.897 54.6053 230.617 54.848C230.355 55.072 230.159 55.3333 230.029 55.632C229.917 55.912 229.861 56.2013 229.861 56.5C229.861 56.892 229.973 57.2747 230.197 57.648C230.421 58.0213 230.794 58.3293 231.317 58.572C231.839 58.8147 232.53 58.936 233.389 58.936C233.893 58.936 234.331 58.8893 234.705 58.796C235.097 58.7027 235.423 58.5813 235.685 58.432C235.965 58.264 236.189 58.0773 236.357 57.872C236.543 57.648 236.674 57.424 236.749 57.2C236.823 56.9573 236.861 56.7147 236.861 56.472C236.861 56.192 236.795 55.912 236.665 55.632C236.553 55.352 236.366 55.1 236.105 54.876C235.843 54.6333 235.489 54.4373 235.041 54.288C234.593 54.1387 234.042 54.064 233.389 54.064ZM268.112 46H278.892C278.892 46.6907 278.892 47.3907 278.892 48.1C278.892 48.7907 278.892 49.4907 278.892 50.2C278.892 50.8907 278.892 51.5907 278.892 52.3C278.892 52.9907 278.892 53.6907 278.892 54.4C278.892 55.0907 278.892 55.7907 278.892 56.5C278.892 58.2547 278.892 60.0093 278.892 61.764C278.892 63.5 278.892 65.2453 278.892 67H265.928L262.4 56.92C262.4 56.9013 262.391 56.892 262.372 56.892C262.372 56.892 262.363 56.892 262.344 56.892C262.344 56.892 262.344 56.9013 262.344 56.92C262.344 58.5627 262.344 60.2427 262.344 61.96C262.344 63.6773 262.344 65.3573 262.344 67H251.564C251.564 65.6 251.564 64.2 251.564 62.8C251.564 61.4 251.564 60 251.564 58.6C251.564 57.2 251.564 55.8 251.564 54.4C251.564 53 251.564 51.6 251.564 50.2C251.564 48.8 251.564 47.4 251.564 46H264.108L268.056 57.62C268.075 57.62 268.084 57.62 268.084 57.62C268.103 57.62 268.112 57.62 268.112 57.62C268.112 57.6013 268.112 57.592 268.112 57.592V46ZM306.993 46V54.512H300.245C300.245 54.512 300.236 54.5213 300.217 54.54C300.217 54.54 300.208 54.54 300.189 54.54C300.189 54.54 300.189 54.5493 300.189 54.568C300.189 55.3893 300.189 56.22 300.189 57.06C300.189 57.8813 300.189 58.712 300.189 59.552C300.189 60.3733 300.189 61.204 300.189 62.044C300.189 62.8653 300.189 63.696 300.189 64.536C300.189 65.3573 300.189 66.1787 300.189 67H288.569C288.569 65.6187 288.569 64.2373 288.569 62.856C288.569 61.4747 288.569 60.0933 288.569 58.712C288.569 57.3307 288.569 55.9493 288.569 54.568C288.569 54.5493 288.56 54.54 288.541 54.54C288.541 54.5213 288.532 54.512 288.513 54.512H281.765V46H306.993ZM325.411 46H337.031C337.031 47.176 337.031 48.352 337.031 49.528C337.031 50.704 337.031 51.88 337.031 53.056C337.031 54.232 337.031 55.4173 337.031 56.612C337.031 58.3293 337.031 60.056 337.031 61.792C337.031 63.528 337.031 65.264 337.031 67H325.411C325.411 65.8613 325.411 64.7227 325.411 63.584C325.411 62.4453 325.411 61.3067 325.411 60.168C325.411 60.1493 325.401 60.14 325.383 60.14C325.383 60.1213 325.373 60.112 325.355 60.112H321.519C321.5 60.112 321.491 60.1213 321.491 60.14C321.491 60.14 321.491 60.1493 321.491 60.168C321.491 61.3067 321.491 62.4453 321.491 63.584C321.491 64.7227 321.491 65.8613 321.491 67H309.871C309.871 65.88 309.871 64.76 309.871 63.64C309.871 62.52 309.871 61.4 309.871 60.28C309.871 59.16 309.871 58.04 309.871 56.92C309.871 55.8 309.871 54.68 309.871 53.56C309.871 52.44 309.871 51.32 309.871 50.2C309.871 49.4907 309.871 48.7907 309.871 48.1C309.871 47.3907 309.871 46.6907 309.871 46H321.491C321.491 46.896 321.491 47.8013 321.491 48.716C321.491 49.6307 321.491 50.5453 321.491 51.46C321.491 52.356 321.491 53.2613 321.491 54.176C321.491 54.1947 321.491 54.2133 321.491 54.232C321.491 54.232 321.5 54.232 321.519 54.232H325.355C325.373 54.232 325.383 54.232 325.383 54.232C325.401 54.2133 325.411 54.1947 325.411 54.176C325.411 52.8133 325.411 51.4507 325.411 50.088C325.411 48.7253 325.411 47.3627 325.411 46Z" fill="white"/>
<defs>
<linearGradient id="paint0_linear_10664_47630" x1="213" y1="-16.4365" x2="213" y2="158.31" gradientUnits="userSpaceOnUse">
<stop stop-color="#FF0037"/>
<stop offset="1" stop-opacity="0"/>
</linearGradient>
</defs>
</svg>
